<svg xmlns="http://www.w3.org/2000/svg" viewBox="0 0 1600 700" role="img" aria-labelledby="title desc"><title id="title">Artificial intelligence, optimization and uncertainty</title><desc id="desc">Abstract network of data nodes, optimization paths and layered uncertainty contours.</desc><defs><linearGradient id="bg" x1="0" y1="0" x2="1" y2="1"><stop offset="0" stop-color="#071b33"/><stop offset="0.55" stop-color="#0d3558"/><stop offset="1" stop-color="#106b7d"/></linearGradient><radialGradient id="glow"><stop offset="0" stop-color="#76d7c4" stop-opacity=".85"/><stop offset="1" stop-color="#76d7c4" stop-opacity="0"/></radialGradient><pattern id="grid" width="56" height="56" patternUnits="userSpaceOnUse"><path d="M56 0H0V56" fill="none" stroke="#fff" stroke-opacity=".055"/></pattern></defs><rect width="1600" height="700" fill="url(#bg)"/><rect width="1600" height="700" fill="url(#grid)"/><circle cx="1230" cy="220" r="360" fill="url(#glow)" opacity=".36"/><g fill="none" stroke="#9fe7dd" stroke-opacity=".28" stroke-width="2"><path d="M890 570C940 410 1040 318 1160 312s203 75 330-18"/><path d="M820 616c64-225 205-363 360-365s264 105 382 28"/><path d="M1010 665c27-148 113-246 222-254s196 56 292 8"/></g><g stroke="#d4f5ef" stroke-opacity=".42" fill="none" stroke-width="2"><path d="M835 175L1005 280l145-92 152 94 150-116"/><path d="M934 405l132-125 166 138 143-136"/><path d="M780 490l154-85 160 111 138-98 205 83"/></g><g fill="#e8fffb"><circle cx="835" cy="175" r="7"/><circle cx="1005" cy="280" r="9"/><circle cx="1150" cy="188" r="7"/><circle cx="1302" cy="282" r="10"/><circle cx="1452" cy="166" r="7"/><circle cx="934" cy="405" r="8"/><circle cx="1066" cy="280" r="6"/><circle cx="1232" cy="418" r="9"/><circle cx="1375" cy="282" r="6"/><circle cx="780" cy="490" r="6"/><circle cx="1094" cy="516" r="8"/><circle cx="1437" cy="501" r="7"/></g><g fill="none" stroke="#76d7c4" stroke-width="5" stroke-linecap="round"><path d="M735 585c85-50 129-83 197-154 74-78 128-131 221-143 87-11 151 22 229-24"/></g><path d="M1370 251l26 10-18 21" fill="none" stroke="#76d7c4" stroke-width="5" stroke-linecap="round" stroke-linejoin="round"/></svg>